<?xml version="1.0" encoding="UTF-8"?>
<svg id="Layer_1" xmlns="http://www.w3.org/2000/svg" version="1.1" viewBox="0 0 767.25 323.68">
  <!-- Generator: Adobe Illustrator 29.8.1, SVG Export Plug-In . SVG Version: 2.1.1 Build 2)  -->
  <defs>
    <style>
      .st0 {
        fill: #1f2a4f;
      }

      .st1 {
        fill: #e30d13;
      }
    </style>
  </defs>
  <path class="st0" d="M642.36,262.38c0-22.01,17.92-39.93,39.93-39.93s39.93,17.79,39.93,39.93-17.92,39.93-39.93,39.93-39.93-17.79-39.93-39.93"/>
  <g>
    <path class="st1" d="M271.42,215.34c0-49.81-43.75-69.05-84.86-84.33-49.02-19.11-66.54-29.38-66.54-50.47,0-6.33,3.29-30.04,37.82-30.04s54.03,16.6,72.21,52.31c3.29,5.8,3.56,8.17,14.1,7.51,16.34-1.98,15.29-3.56,15.29-8.04,0-8.3-4.61-47.96-7.25-61.93-1.98-14.1-3.82-15.94-8.43-15.94-.66,0-3.29.4-5.27.79-2.77.4-6.06.53-8.04.53-3.29,0-16.6-1.98-30.97-3.29-14.36-1.32-30.04-2.5-35.31-2.5-93.16-.13-117.94,51.65-117.94,87.36,0,44.67,35.97,61.27,73.79,77.88,62.06,28.07,72.47,33.21,72.47,54.95,0,6.98-1.98,14.1-5.93,19.77-6.59,8.96-17.66,13.44-33.34,13.44-54.82,0-70.23-40.06-76.16-57.32-3.95-11.46-2.37-13.57-8.57-12.91l-17.39,1.45c-6.46,1.45-6.06,4.74-6.06,7.38,2.64,10.41,7.38,53.63,5.14,79.99-.53,8.04,8.43,7.64,13.7,6.85,6.06-1.05,14.63-1.58,25.7-.13,29.38,3.82,44.67,5.53,58.37,5.53,59.43,0,83.54-15.94,99.22-31.36,8.43-8.3,24.11-26.88,24.11-57.45"/>
    <path class="st1" d="M590.57,242.09c-12.12,5.8-18.58,9.49-32.68,9.49-18.58,0-18.58-8.96-18.58-41.64,0-16.08,3.16-94.88,3.16-112.8,0-28.2-6.46-46.78-23.72-59.56-20.56-16.08-51.26-18.58-65.36-18.58-78.8,0-144.82,63.65-144.82,90,0,1.32.66,11.6,12.12,11.6,3.16,0,31.63-7.25,51.92-11.33,12.78-2.9,14.1-6.19,13.57-12.78-.4-5.14-2.64-11.99-2.64-14.63,0-11.6,32.02-11.6,35.84-11.6,42.3,0,42.3,16.6,42.3,82.62-36.5,4.48-79.46,8.96-124.39,23.72-26.88,8.96-39.14,21.74-39.14,60.22,0,43.62,21.74,67.2,63.51,67.2,44.8,0,82.09-17.92,100.01-26.22,2.5,5.8,10.28,26.88,40.32,26.88,23.06,0,58.37-12.78,78.8-22.4,14.63-6.59,12.39-8.83,13.05-18.45v-19.9l-3.29-1.84ZM461.44,247.75c-13.44,5.8-30.7,10.28-46.12,10.28-26.88,0-34.66-12.12-34.66-41.64,0-12.12,2.5-17.92,14.1-23.72,23.72-12.12,46.12-14.1,53.24-14.1,14.1,0,14.1,9.62,14.1,21.08l-.66,48.1Z"/>
  </g>
</svg>